<?xml version="1.0" encoding="UTF-8" standalone="no"?>
<svg
    xmlns:svg="http://www.w3.org/2000/svg"
    xmlns="http://www.w3.org/2000/svg"
    width="1792"
    height="1792"
    viewBox="0 0 1792 1792"
    version="1.1">
    <path fill="#337AB7" d="m 928,832 c 0,-9.33333 -3,-17 -9,-23 -6,-6 -13.66667,-9 -23,-9 -44,0 -81.66667,15.66667 -113,47 -31.33333,31.33333 -47,69 -47,113 0,9.33333 3,17 9,23 6,6 13.66667,9 23,9 9.33333,0 17,-3 23,-9 6,-6 9,-13.66667 9,-23 0,-26.66667 9.33333,-49.33333 28,-68 18.66667,-18.66667 41.33333,-28 68,-28 9.33333,0 17,-3 23,-9 6,-6 9,-13.66667 9,-23 z m 224,130 c 0,70.6667 -25,131 -75,181 -50,50 -110.33333,75 -181,75 -70.66667,0 -131,-25 -181,-75 -50,-50 -75,-110.3333 -75,-181 0,-70.66667 25,-131 75,-181 50,-50 110.33333,-75 181,-75 70.66667,0 131,25 181,75 50,50 75,110.33333 75,181 z m 128,0 C 1280,856 1242.5,765.5 1167.5,690.5 1092.5,615.5 1002,578 896,578 790,578 699.5,615.5 624.5,690.5 549.5,765.5 512,856 512,962 c 0,106 37.5,196.5 112.5,271.5 75,75 165.5,112.5 271.5,112.5 106,0 196.5,-37.5 271.5,-112.5 75,-75 112.5,-165.5 112.5,-271.5 z M 128,337 H 687 V 256 H 159.98114 c -10.66038,0 -17.73309,-0.828 -25.27111,6.71003 C 127.02587,270.39418 128,277.73408 128,288.60111 Z m 0,175 H 1664 V 305.37618 c 0,0 0.5136,-26.61359 -11.1245,-38.25166 C 1640.493,254.74204 1628.9771,256 1611.4656,256 1352.9771,256 836,256 836,256 L 772,384 H 128 Z M 1792,256 v 1280 c 0,35.3333 -12.5,65.5 -37.5,90.5 -25,25 -55.1667,37.5 -90.5,37.5 H 128 C 92.666667,1664 62.5,1651.5 37.5,1626.5 12.5,1601.5 0,1571.3333 0,1536 V 256 C 0,220.66667 12.5,190.5 37.5,165.5 62.5,140.5 92.666667,128 128,128 h 1536 c 35.3333,0 65.5,12.5 90.5,37.5 25,25 37.5,55.16667 37.5,90.5 z" id="path58" />
</svg>
